<mxfile host="app.diagrams.net" modified="2020-09-17T16:40:05.660Z" agent="5.0 (Windows NT 10.0; Win64; x64) AppleWebKit/537.36 (KHTML, like Gecko) Chrome/85.0.4183.102 Safari/537.36" etag="2ZvZchci-BsVfg5YQ4Vq" version="13.7.3" type="github">
  <diagram id="C5RBs43oDa-KdzZeNtuy" name="Page-1">
    <mxGraphModel dx="1038" dy="580" grid="1" gridSize="10" guides="1" tooltips="1" connect="1" arrows="1" fold="1" page="1" pageScale="1" pageWidth="827" pageHeight="1169" math="0" shadow="0">
      <root>
        <mxCell id="WIyWlLk6GJQsqaUBKTNV-0" />
        <mxCell id="WIyWlLk6GJQsqaUBKTNV-1" parent="WIyWlLk6GJQsqaUBKTNV-0" />
        <mxCell id="AzRIFwhGw3seuBZpt7Vp-23" value="" style="edgeStyle=orthogonalEdgeStyle;rounded=0;orthogonalLoop=1;jettySize=auto;html=1;" edge="1" parent="WIyWlLk6GJQsqaUBKTNV-1" source="AzRIFwhGw3seuBZpt7Vp-21" target="AzRIFwhGw3seuBZpt7Vp-22">
          <mxGeometry relative="1" as="geometry" />
        </mxCell>
        <mxCell id="AzRIFwhGw3seuBZpt7Vp-21" value="Enter starting balance in dollars.&amp;nbsp;" style="ellipse;whiteSpace=wrap;html=1;" vertex="1" parent="WIyWlLk6GJQsqaUBKTNV-1">
          <mxGeometry x="160" y="60" width="120" height="80" as="geometry" />
        </mxCell>
        <mxCell id="AzRIFwhGw3seuBZpt7Vp-26" value="" style="edgeStyle=orthogonalEdgeStyle;rounded=0;orthogonalLoop=1;jettySize=auto;html=1;" edge="1" parent="WIyWlLk6GJQsqaUBKTNV-1" source="AzRIFwhGw3seuBZpt7Vp-22" target="AzRIFwhGw3seuBZpt7Vp-25">
          <mxGeometry relative="1" as="geometry" />
        </mxCell>
        <mxCell id="AzRIFwhGw3seuBZpt7Vp-29" value="no" style="edgeStyle=orthogonalEdgeStyle;rounded=0;orthogonalLoop=1;jettySize=auto;html=1;" edge="1" parent="WIyWlLk6GJQsqaUBKTNV-1" source="AzRIFwhGw3seuBZpt7Vp-22" target="AzRIFwhGw3seuBZpt7Vp-21">
          <mxGeometry relative="1" as="geometry">
            <mxPoint x="290" y="150" as="targetPoint" />
            <Array as="points">
              <mxPoint x="300" y="200" />
              <mxPoint x="300" y="100" />
            </Array>
          </mxGeometry>
        </mxCell>
        <mxCell id="AzRIFwhGw3seuBZpt7Vp-22" value="is it 1000?" style="whiteSpace=wrap;html=1;" vertex="1" parent="WIyWlLk6GJQsqaUBKTNV-1">
          <mxGeometry x="160" y="170" width="120" height="60" as="geometry" />
        </mxCell>
        <mxCell id="AzRIFwhGw3seuBZpt7Vp-28" value="" style="edgeStyle=orthogonalEdgeStyle;rounded=0;orthogonalLoop=1;jettySize=auto;html=1;" edge="1" parent="WIyWlLk6GJQsqaUBKTNV-1" source="AzRIFwhGw3seuBZpt7Vp-25" target="AzRIFwhGw3seuBZpt7Vp-27">
          <mxGeometry relative="1" as="geometry" />
        </mxCell>
        <mxCell id="AzRIFwhGw3seuBZpt7Vp-25" value="yes" style="rhombus;whiteSpace=wrap;html=1;" vertex="1" parent="WIyWlLk6GJQsqaUBKTNV-1">
          <mxGeometry x="180" y="260" width="80" height="80" as="geometry" />
        </mxCell>
        <mxCell id="AzRIFwhGw3seuBZpt7Vp-31" value="" style="edgeStyle=orthogonalEdgeStyle;rounded=0;orthogonalLoop=1;jettySize=auto;html=1;" edge="1" parent="WIyWlLk6GJQsqaUBKTNV-1" source="AzRIFwhGw3seuBZpt7Vp-27" target="AzRIFwhGw3seuBZpt7Vp-30">
          <mxGeometry relative="1" as="geometry" />
        </mxCell>
        <mxCell id="AzRIFwhGw3seuBZpt7Vp-27" value="Enter yearly contribution in dollars" style="ellipse;whiteSpace=wrap;html=1;" vertex="1" parent="WIyWlLk6GJQsqaUBKTNV-1">
          <mxGeometry x="160" y="360" width="120" height="80" as="geometry" />
        </mxCell>
        <mxCell id="AzRIFwhGw3seuBZpt7Vp-35" value="" style="edgeStyle=orthogonalEdgeStyle;rounded=0;orthogonalLoop=1;jettySize=auto;html=1;" edge="1" parent="WIyWlLk6GJQsqaUBKTNV-1" source="AzRIFwhGw3seuBZpt7Vp-30" target="AzRIFwhGw3seuBZpt7Vp-34">
          <mxGeometry relative="1" as="geometry" />
        </mxCell>
        <mxCell id="AzRIFwhGw3seuBZpt7Vp-37" value="no" style="edgeStyle=orthogonalEdgeStyle;rounded=0;orthogonalLoop=1;jettySize=auto;html=1;entryX=1;entryY=0.5;entryDx=0;entryDy=0;" edge="1" parent="WIyWlLk6GJQsqaUBKTNV-1" source="AzRIFwhGw3seuBZpt7Vp-30" target="AzRIFwhGw3seuBZpt7Vp-27">
          <mxGeometry relative="1" as="geometry">
            <mxPoint x="370" y="485" as="targetPoint" />
            <Array as="points">
              <mxPoint x="300" y="470" />
              <mxPoint x="300" y="400" />
            </Array>
          </mxGeometry>
        </mxCell>
        <mxCell id="AzRIFwhGw3seuBZpt7Vp-30" value="is it 100?" style="whiteSpace=wrap;html=1;" vertex="1" parent="WIyWlLk6GJQsqaUBKTNV-1">
          <mxGeometry x="160" y="460" width="120" height="50" as="geometry" />
        </mxCell>
        <mxCell id="AzRIFwhGw3seuBZpt7Vp-39" value="" style="edgeStyle=orthogonalEdgeStyle;rounded=0;orthogonalLoop=1;jettySize=auto;html=1;" edge="1" parent="WIyWlLk6GJQsqaUBKTNV-1" source="AzRIFwhGw3seuBZpt7Vp-34" target="AzRIFwhGw3seuBZpt7Vp-38">
          <mxGeometry relative="1" as="geometry" />
        </mxCell>
        <mxCell id="AzRIFwhGw3seuBZpt7Vp-34" value="yes" style="rhombus;whiteSpace=wrap;html=1;" vertex="1" parent="WIyWlLk6GJQsqaUBKTNV-1">
          <mxGeometry x="180" y="530" width="80" height="80" as="geometry" />
        </mxCell>
        <mxCell id="AzRIFwhGw3seuBZpt7Vp-41" value="" style="edgeStyle=orthogonalEdgeStyle;rounded=0;orthogonalLoop=1;jettySize=auto;html=1;" edge="1" parent="WIyWlLk6GJQsqaUBKTNV-1" source="AzRIFwhGw3seuBZpt7Vp-38" target="AzRIFwhGw3seuBZpt7Vp-40">
          <mxGeometry relative="1" as="geometry" />
        </mxCell>
        <mxCell id="AzRIFwhGw3seuBZpt7Vp-38" value="Enter average investment on return as %" style="ellipse;whiteSpace=wrap;html=1;" vertex="1" parent="WIyWlLk6GJQsqaUBKTNV-1">
          <mxGeometry x="160" y="630" width="120" height="80" as="geometry" />
        </mxCell>
        <mxCell id="AzRIFwhGw3seuBZpt7Vp-42" value="no" style="edgeStyle=orthogonalEdgeStyle;rounded=0;orthogonalLoop=1;jettySize=auto;html=1;" edge="1" parent="WIyWlLk6GJQsqaUBKTNV-1" source="AzRIFwhGw3seuBZpt7Vp-40" target="AzRIFwhGw3seuBZpt7Vp-38">
          <mxGeometry relative="1" as="geometry">
            <mxPoint x="310" y="710" as="targetPoint" />
            <Array as="points">
              <mxPoint x="340" y="760" />
              <mxPoint x="340" y="670" />
            </Array>
          </mxGeometry>
        </mxCell>
        <mxCell id="AzRIFwhGw3seuBZpt7Vp-44" value="" style="edgeStyle=orthogonalEdgeStyle;rounded=0;orthogonalLoop=1;jettySize=auto;html=1;" edge="1" parent="WIyWlLk6GJQsqaUBKTNV-1" source="AzRIFwhGw3seuBZpt7Vp-40" target="AzRIFwhGw3seuBZpt7Vp-43">
          <mxGeometry relative="1" as="geometry" />
        </mxCell>
        <mxCell id="AzRIFwhGw3seuBZpt7Vp-40" value="is it 5%" style="whiteSpace=wrap;html=1;" vertex="1" parent="WIyWlLk6GJQsqaUBKTNV-1">
          <mxGeometry x="160" y="730" width="120" height="60" as="geometry" />
        </mxCell>
        <mxCell id="AzRIFwhGw3seuBZpt7Vp-46" value="" style="edgeStyle=orthogonalEdgeStyle;rounded=0;orthogonalLoop=1;jettySize=auto;html=1;" edge="1" parent="WIyWlLk6GJQsqaUBKTNV-1" source="AzRIFwhGw3seuBZpt7Vp-43" target="AzRIFwhGw3seuBZpt7Vp-45">
          <mxGeometry relative="1" as="geometry" />
        </mxCell>
        <mxCell id="AzRIFwhGw3seuBZpt7Vp-43" value="yes" style="rhombus;whiteSpace=wrap;html=1;" vertex="1" parent="WIyWlLk6GJQsqaUBKTNV-1">
          <mxGeometry x="180" y="810" width="80" height="80" as="geometry" />
        </mxCell>
        <mxCell id="AzRIFwhGw3seuBZpt7Vp-48" value="" style="edgeStyle=orthogonalEdgeStyle;rounded=0;orthogonalLoop=1;jettySize=auto;html=1;" edge="1" parent="WIyWlLk6GJQsqaUBKTNV-1" source="AzRIFwhGw3seuBZpt7Vp-45" target="AzRIFwhGw3seuBZpt7Vp-47">
          <mxGeometry relative="1" as="geometry" />
        </mxCell>
        <mxCell id="AzRIFwhGw3seuBZpt7Vp-45" value="Enter number of years for the report" style="ellipse;whiteSpace=wrap;html=1;" vertex="1" parent="WIyWlLk6GJQsqaUBKTNV-1">
          <mxGeometry x="160" y="910" width="120" height="80" as="geometry" />
        </mxCell>
        <mxCell id="AzRIFwhGw3seuBZpt7Vp-50" value="" style="edgeStyle=orthogonalEdgeStyle;rounded=0;orthogonalLoop=1;jettySize=auto;html=1;" edge="1" parent="WIyWlLk6GJQsqaUBKTNV-1" source="AzRIFwhGw3seuBZpt7Vp-47" target="AzRIFwhGw3seuBZpt7Vp-49">
          <mxGeometry relative="1" as="geometry" />
        </mxCell>
        <mxCell id="AzRIFwhGw3seuBZpt7Vp-51" value="no" style="edgeStyle=orthogonalEdgeStyle;rounded=0;orthogonalLoop=1;jettySize=auto;html=1;entryX=1;entryY=0.5;entryDx=0;entryDy=0;" edge="1" parent="WIyWlLk6GJQsqaUBKTNV-1" source="AzRIFwhGw3seuBZpt7Vp-47" target="AzRIFwhGw3seuBZpt7Vp-45">
          <mxGeometry relative="1" as="geometry">
            <mxPoint x="320" y="950" as="targetPoint" />
            <Array as="points">
              <mxPoint x="300" y="1020" />
              <mxPoint x="300" y="950" />
            </Array>
          </mxGeometry>
        </mxCell>
        <mxCell id="AzRIFwhGw3seuBZpt7Vp-47" value="is it 3 years?" style="whiteSpace=wrap;html=1;" vertex="1" parent="WIyWlLk6GJQsqaUBKTNV-1">
          <mxGeometry x="160" y="1010" width="120" height="60" as="geometry" />
        </mxCell>
        <mxCell id="AzRIFwhGw3seuBZpt7Vp-49" value="yes" style="rhombus;whiteSpace=wrap;html=1;" vertex="1" parent="WIyWlLk6GJQsqaUBKTNV-1">
          <mxGeometry x="180" y="1089" width="80" height="80" as="geometry" />
        </mxCell>
      </root>
    </mxGraphModel>
  </diagram>
</mxfile>
